<mxfile host="app.diagrams.net" agent="Mozilla/5.0 (X11; Linux x86_64) AppleWebKit/537.36 (KHTML, like Gecko) Chrome/137.0.0.0 Safari/537.36" version="27.1.1">
  <diagram name="Page-1" id="Mt8mq_YDYnplQNwaLj1s">
    <mxGraphModel dx="815" dy="397" grid="1" gridSize="10" guides="1" tooltips="1" connect="1" arrows="1" fold="1" page="1" pageScale="1" pageWidth="850" pageHeight="1100" math="0" shadow="0">
      <root>
        <mxCell id="0" />
        <mxCell id="1" parent="0" />
        <mxCell id="P35aBOGgWrfuhmSp33Gf-2" value="GitLab" style="shape=image;verticalLabelPosition=bottom;labelBackgroundColor=default;verticalAlign=top;aspect=fixed;imageAspect=0;image=https://images.ctfassets.net/xz1dnu24egyd/1IRkfXmxo8VP2RAE5jiS1Q/ea2086675d87911b0ce2d34c354b3711/gitlab-logo-500.png;fontSize=11;" vertex="1" parent="1">
          <mxGeometry x="90" y="175.41" width="70" height="70" as="geometry" />
        </mxCell>
        <mxCell id="P35aBOGgWrfuhmSp33Gf-15" value="" style="edgeStyle=orthogonalEdgeStyle;rounded=0;orthogonalLoop=1;jettySize=auto;html=1;exitX=0;exitY=0.5;exitDx=0;exitDy=0;exitPerimeter=0;entryX=1;entryY=0.5;entryDx=0;entryDy=0;" edge="1" parent="1" source="P35aBOGgWrfuhmSp33Gf-13" target="P35aBOGgWrfuhmSp33Gf-6">
          <mxGeometry relative="1" as="geometry">
            <mxPoint x="356.67499999999995" y="210.40999999999997" as="targetPoint" />
          </mxGeometry>
        </mxCell>
        <mxCell id="P35aBOGgWrfuhmSp33Gf-16" value="3. pulls malicious&lt;div&gt;image&lt;/div&gt;" style="edgeLabel;html=1;align=center;verticalAlign=middle;resizable=0;points=[];" vertex="1" connectable="0" parent="P35aBOGgWrfuhmSp33Gf-15">
          <mxGeometry x="-0.0707" y="2" relative="1" as="geometry">
            <mxPoint y="-22" as="offset" />
          </mxGeometry>
        </mxCell>
        <mxCell id="P35aBOGgWrfuhmSp33Gf-6" value="&lt;font style=&quot;font-size: 10px;&quot;&gt;Container&lt;/font&gt;&lt;div&gt;&lt;font style=&quot;font-size: 10px;&quot;&gt;Registry&lt;/font&gt;&lt;/div&gt;" style="editableCssRules=.*;html=1;shape=image;verticalLabelPosition=bottom;labelBackgroundColor=#ffffff;verticalAlign=top;aspect=fixed;imageAspect=0;image=data:image/svg+xml,PHN2ZyB4bWxucz0iaHR0cDovL3d3dy53My5vcmcvMjAwMC9zdmciIHhtbG5zOnY9Imh0dHBzOi8vdmVjdGEuaW8vbmFubyIgd2lkdGg9IjM3Ny4xNTkzMDIxNjAyNjMwNSIgaGVpZ2h0PSIzMzYuMTYyNDk5MDAzMzEwOCIgdmlld0JveD0iLTAuMDU4MDAwMDA1NzgxNjUwNTQgMC4xMTI5OTk5OTgwMzMwNDY3MiA5OS43OTAwMDA5MTU1MjczNCA4OC45NDMwMDA3OTM0NTcwMyI+JiN4YTs8c3R5bGUgdHlwZT0idGV4dC9jc3MiPiYjeGE7CS5zdDB7ZmlsbDojNjY5ZGY2O30mI3hhOwkuc3Qxe2ZpbGw6I2FlY2JmYTt9JiN4YTsJLnN0MntmaWxsOiM0Mjg1ZjQ7fSYjeGE7PC9zdHlsZT4mI3hhOwk8cGF0aCBjbGFzcz0ic3QwIiBkPSJNNTMuMjQzIDYyLjA5VjQ3LjA5NGwxMy4yMDEgOC40MTZ2MTUuMDM4em0tMzMuMDIxIDBWNDcuMDk0bDEzLjIwMSA4LjQxNnYxNS4wMzh6bTE2LjUxMS0zMi4yODVWMTQuODFsMTMuMjAxIDguNDE2djE1LjAzOHptNjIuOTk5IDMzLjk2VjI1LjQwM2wtOS41NjItMS44ODR2NDIuMTMxem0tOTkuNzg4IDBWMjUuNDAzbDkuNTYyLTEuODg0djQyLjEzMXoiLz4mI3hhOwk8cGF0aCBjbGFzcz0ic3QxIiBkPSJNNTMuMTg1IDQ3LjA5NGwxMy4yNTgtOC4yODcgMTMuMDE2IDguMjM0LTEzLjAxNiA4LjQ2OXptLTMzLjAyMSAwbDEzLjI1OC04LjI4NyAxMy4wMTYgOC4yMzQtMTMuMDE2IDguNDY5ek0zNi42NzUgMTQuODFsMTMuMjU4LTguMjg3IDEzLjAxNiA4LjIzNC0xMy4wMTYgOC40Njl6bTYzLjA1NiA0OC45NTZ2MTIuMjE3TDc3LjAxIDg5LjA1NVY3Ny43NTJ6bTAtMzguMzYzVjEzLjE4Nkw3Ny4wMS4xMTN2MTEuMzAzek0tLjA1OCA2My43NjZ2MTIuMjE3bDIyLjcyMSAxMy4wNzNWNzcuNzUyem0wLTM4LjM2M1YxMy4xODZMMjIuNjYzLjExM3YxMS4zMDN6Ii8+JiN4YTsJPHBhdGggY2xhc3M9InN0MiIgZD0iTTY2LjQ0NCA3MC41NDdWNTUuNTFsMTMuMDE2LTguNDY5djE1LjR6bS0zMy4wMjEgMFY1NS41MWwxMy4wMTYtOC40Njl2MTUuNHptMTYuNTExLTMyLjI4NVYyMy4yMjVsMTMuMDE2LTguNDY5djE1LjR6bTQ5Ljc5OCAyNS41MDNsLTkuNTYyIDUuODh2LTMuOTk2em0wLTM4LjM2M2wtOS41NjItNS44OHYzLjk5NnpNLS4wNTggNjMuNzY2bDkuNTYyIDUuODh2LTMuOTk2em0wLTM4LjM2M2w5LjU2Mi01Ljg4djMuOTk2eiIvPiYjeGE7PC9zdmc+;" vertex="1" parent="1">
          <mxGeometry x="250" y="190.41" width="44.45" height="40" as="geometry" />
        </mxCell>
        <mxCell id="P35aBOGgWrfuhmSp33Gf-7" value="" style="endArrow=classic;html=1;rounded=0;exitX=1;exitY=0.5;exitDx=0;exitDy=0;entryX=0;entryY=0.5;entryDx=0;entryDy=0;" edge="1" parent="1" source="P35aBOGgWrfuhmSp33Gf-2" target="P35aBOGgWrfuhmSp33Gf-6">
          <mxGeometry width="50" height="50" relative="1" as="geometry">
            <mxPoint x="340" y="340.40999999999997" as="sourcePoint" />
            <mxPoint x="390" y="290.40999999999997" as="targetPoint" />
          </mxGeometry>
        </mxCell>
        <mxCell id="P35aBOGgWrfuhmSp33Gf-8" value="1. push&amp;nbsp;&lt;div&gt;signed&lt;/div&gt;&lt;div&gt;image&lt;/div&gt;" style="edgeLabel;html=1;align=center;verticalAlign=middle;resizable=0;points=[];" vertex="1" connectable="0" parent="P35aBOGgWrfuhmSp33Gf-7">
          <mxGeometry x="-0.2313" relative="1" as="geometry">
            <mxPoint x="5" y="-24" as="offset" />
          </mxGeometry>
        </mxCell>
        <mxCell id="P35aBOGgWrfuhmSp33Gf-10" value="Malicious actor" style="shape=image;verticalLabelPosition=bottom;labelBackgroundColor=default;verticalAlign=top;aspect=fixed;imageAspect=0;image=data:image/png,iVBORw0KGgoAAAANSUhEUgAAAgAAAAIACAYAAAD0eNT6AAAAAXNSR0IArs4c6QAAIABJREFUeAHtnQe0ZVWd5j8yVVQXoQDJSWgkGJAGpxW0RYKAaOsMuqYbQVubQekRxSZMOzroQgUDigkLsKHRdloUbUC0B0RHBYklShbJOECRUxUlybkfnCvHW/fed8MJO/zOWm+99244Z+/f/v5h77PP3hIHBCAAAQhAAAIQgAAEIAABCEAAAhCAAAQgAAEIQAACEIAABCAAAQhAAAIQgAAEIAABCEAAAhCAAAQgAAEIQAACEIAABCAAAQhAAAIQgAAEIAABCEAAAhCAAAQgAAEIQAACEIAABCAAAQhAAAIQgAAEIAABCEAAAhCAAAQgAAEIQAACEIAABCAAAQhAAAIQgAAEIAABCEAAAhCAAAQgAAEIQAACEIAABCAAAQhAAAIQgAAEIAABCEAAAhCAAAQgAAEIQAACEIAABCAAAQhAAAIQgAAEIAABCEAAAhCAAAQgAAEIQAACEIAABCAAAQhAAAIQgAAEIAABCEAAAhCAAAQgAAEIQAACEIAABCAAAQhAAAIQgAAEIAABCEAAAhCAAAQgAAEIQAACEIAABCAAAQhAAAIQgAAEIAABCEAAAhCAAAQgAAEIQAACEIAABCAAAQhAAAIQgAAEIAABCEAAAhCAQFME5kjaV9IJki6VdLekJyU9IekeSRdLmi/prZJWbapQEV3HTMzmREmXFMzMzgzN0q+ZrRmbNQcEIAABCECgVQJbFIF9saQ/jPjzmKSTJG3WasnDuPgLJZ0syUxG5WfWX5W0eRhVoBQQgAAEIJATgdmSPlX08EcNXL2f+31xjpVyAlfUdWVJn5ZkBr1cRv3f3z1G0qwM+VFlCEAAAhBogYB7nr+eInD1Bjifa8sW6tHWJV3XKvldIckjCRwQgAAEIACB2ghsLenOCoN/Nxl4pBMU31xbqcM58V6SHqyB30JJLwmnmpQEAhCAAARSIuB79vfWELy6ScDTkj4iaZmUoBV1cZ1cN9exW9+qfzsJ2CRBdlQJAhCAAARaJOD7zFfWGLzKwfB7kua2WNeqL+26uE7lOtb196868wI8v4ADAhCAAAQgUAkBTzarK2j1O+9vJPl2Q+yHn5K4umF2R8cOjfJDAAIQgEAYBDz07+fR+wXqOl97SNIbwkAwUSlcdtehTkb9zu31AzadqMR8CQIQgAAEIFAi4AV8+gWaJl7zPfMPRzYvwPf7XeY67/fPxN7rBHBAAAIQgAAEJiawuqRFLSYA3UD3/UhWEPQqfd8JgJcXC5o3cavzRQhAAAIQyJ7AYQEEs24SEPq8gDbu93fZ9Pv9j9mrFwAQgAAEIDARAQ9l3xBQAuAgF+p6AXU9398vsI/62k2Slp2o5fkSBCAAAQhkTWDvwIJ/N/A9UyyBG0Jwc5J0RMv3+7tc+v12YsIBAQhAAAIQGIvAOYEmAN1A1/a8gFDu93d59PttRhwQgAAEIACBkQlsLOmpwBMABzzPC9hq5FpV90Hvh9D08/39AvxMr/lJBHZdrK7dORMEIACB5Al4p7+Zgkso73tewF832CJ71rSef108j22QDZeCAAQgAIGICXh73nsiSgAcOJuYFxD6/f5BCcR9LA8csTVSdAhAAAINEnhHZMG/HPjOrmm9gBju95c59P59QIP64VIQgAAEIBApgUsjTgAc+KqeFxDL/f7eoF/+/5JItUixIQABCECgIQIvjzz4d4NeVfMCYrvf361/v987NKQhLgMBCEAAAhESODWRBMABcJp5AbHe7+8X+LuvnRKhHikyBCAAAQg0QCCUdf+7Aauq3+POC4j9fv8gbuwP0IARcQkIQAACMRIIad3/QUFs0tdHnReQwv3+YYzYHyBGy6TMEIAABGok4GV1vXb8sOAR+3szzQvw/f4HEmdwq6TlatQRp4YABCAAgcgIhLruf9VJR795ASne7x/Gjf0BIjNOigsBCECgTgKhr/s/LKBN8l53XkCq9/uHMWF/gDotiXNDAAIQiIiA14r3mvHDgkaK710jyT8p1m1YndgfICLjpKgQgAAE6iTw6QyD4LAAmcN73uuBAwIQgAAEMiYwS5LXis8h6FHH59vZkx1nZ6x7qg4BCEAgewIxr/tPQH8+oE/Cgv0Bsjd/AEAAAjkTiH3d/0kCH995LnFYkLPwqTsEIACBnAnsyNB/9rc+2B8gZw9A3SEAgWwJpLTuP736yW4HsD9AtuZPxSEAgVwJzJP0OCMA2Y8ALJG0Vq5GQL0hAAEI5EjgcIJ/9sG/O2riPSA4IAABCEAgAwI5rPvfDW78nvnWAPsDZGD0VBECEICACeSy7j/Bf+bg32XE/gD4BghAAAIZEMht3f9ukOP34ISA/QEyMHyqCAEI5E0g13X/Cf6Dg7/ZeJfELfI2DWoPAQhAIG0CrPs/PBDmnCiwP0Datk/tIACBjAmw7j/Bf1iCw/4AGTsHqg4BCKRNgHX/SQCGJQB+j/0B0vYB1A4CEMiUAOv+kwDMlACwP0CmzoFqQwAC6RJg3X+C/0zBv/s++wOk6weoGQQgkCEB1v0nAegG+Jl+sz9Ahg6CKkMAAmkSYN1/gv9MQb/8PvsDpOkHqBUEIJAhAdb9JwEoB/hR/mZ/gAwdBVWGAATSIsC6/wT/UQJ+72fYHyAtP0BtIACBDAmw7j8JQG9wH/V/9gfI0GFQZQhAIB0CP2DbX7b9nVAD3jOCAwIQgAAEIiTAuv/0/kft7ff7HPsDRGj0FBkCEICACbDuPwlAv8A+zmvsD4AvgQAEIBAZAdb9J/iPE+gHfZb9ASIzfIoLAQhA4J0T3vcdFAh4Pd+EwntIcEAAAhCAQCQEWPc/34BddbLG/gCRGD3FhAAEIMC6/wT/qpMA9gfAr0AAAhCIgADr/pMAVJ0AsD9ABIZPESEAgbwJsO4/wb/q4O/zsT9A3n6F2kMAAhEQYN1/EoA6EgCfk/0BInAAFBECEMiTgNf9v5nZ/6z8V5MG2B8gT79CrSEAgQgIsO4/vf+6ev/d87I/QASOgCJCAAL5EWDdfxKAbqCu6zf7A+TnV6gxBCAQOAHW/Sf41xX0y+dlf4DAHQHFgwAE8iPAuv8kAOVAXeff7A+Qn3+hxhCAQKAEWPef4F9nwO89N/sDBOoIKBYEIJAfAdb9JwHoDdJ1/8/+APn5GWoMAQgESIB1/0kA6g74vednf4AAHQFFggAE8iLAuv8E/97g3NT/7A+Ql6+hthCAQEAENpT07ZoWfWkqiHCdeBMYa88a5IAABCAAgZoIrC5pJ0kHSjpe0nmS7iHws+JfIBp4WNLlkk6TdISkfTp/+7HUZWqyB04LAQhAIDkC60jaQ9Khkk7u/H2RJDtXeskwiFEDDxUaPqnQ9O6SrHEOCEAAAlkTWK/oKR0l6XRJ1xDoSXQy0cCdks6WdExn74r9O7extsnaE1B5CEAgaQLlYG/HZwcYY4+OMtNudWnAawtcUNzi6iYF3EJI2i1SOQikR2Clzj36VxVbp54paSHBnmQHDUykAdvOv0v6R0mvlGTb4oAABCAQDIG5nZ7Lrp3SeCjfk/Mex9lP5Ozr6lly3nRGLZ4sJht6Iuy+ktYKxgtQEAhAIAsCm0jyynv/LOk6gj3BHg20pgFvTGQb/Jokr0y4cRYeiEpCAAKNEZhT9PA9YcmPOtGjhAEaCFcDN0maX4wQrNGYl+BCEIBAEgSW78xQ3r54ntlD+k8Q9El60ECUGniqSNqdvPs2HXMIknDRVAIC1RLYVNIhkn7QmXD0GM4+SmdPrzzcXnkobWPbPkfS+yT5Vh4HBCCQKQE/e+yJex7W973EUJwU5aAt0EAzGvDaGx4d8CqbPHKYaSCg2nkQ8NC+Dd0ziO8g4JPwoAE0UNKAHzn0UsZexphbBXnEBGqZOIFZnVnCbytW2nukZOz0sJrpYcEZzjFqwMtvf6uYSGgfwgEBCERCYNmip++ZwKyjTwCKMQBR5nB0u7joQHhkYIVIfCDFhEB2BHxP3/fz7qKnz9AuGkADNWjgvuIRQ+YMZBdeqHCIBLboTN75qKTf1mDs9MLC6YXRFrRFaBq4oeMQPYl48xAdI2WCQKoElism6vgZfWbvExhCCwyUJz9NehMjL03MLYJUow71ap2Ad9Q7QtLt9PYZ3kUDaCBADfj2o29DssZA6+GCAqRAwBP6vILX6ZK8EQi9KxigATQQugaeLjYG86iARyw5IACBMQis0pnB/4HOBh+3EvRJetAAGohYAzcXKw/ap3FAAAJDCHhrXS/Jy0x+enmh9/IoHxodRwP3dvyeJw2yQdGQAMBbeRJ4QWEcD0Wc6Y/jDPgswQMN5KmBR4vVSDfI09VTawg8T8CP8Z0kaQmBn2FeNIAGMtKAfd6JPEb4fDDgr3wIrFlkwUzsy7MXRO+XdkcDz2nAEwa9B8G6+bh/aporAU+E8aN8LNFLACAAoAE08LwGvFWxHyH0PCgOCCRFwI/z7S/pzoyG+HBuzzs3WMACDYymAU8W9ERo717KAYHoCbyxsyPfdQR+7u+iATSABkbWwDWS3hC996cC2RJYX9IZGPzIBk8PabQeEpzglJMGzmZlwWxjaJQV99DV4ZIWEfwJ/mgADaCBqTXg+QEf5LZAlPEwq0JvJelSDH5qg8+ph0Nd6dGjgdE0cImkF2UVUahsFAQ8ye/Qzgz/xwn+BH80gAbQQG0aWFxMElwmishAIZMnsJakH2DwtRk8vaPRekdwglNOGvB26OskH12oYNAE/opH+wj8JH9oAA20ooHfSXp10BGCwiVL4EBJT2D4rRh+Tj0d6krPHg0M1sBTxeJqyQYaKhYWgRUlfY3AT+BHA2gADQSjAe8rYN/MAYHaCHiZyh9j9MEYPT2jwT0j2MAmNw14XsCc2rw/J86agLfsXUDwJ/ijATSABoLVwGWSPDGbAwKVEfBs0+sx+mCNPreeDvWld48GBmvgWklrV+b9OVHWBLx171UEf4I/GkADaCAaDVwpaV7WkYvKT03A95MY9h+cadMLgQ0aQAOhasC3A5gTMHUYzPMEXt3v38n4o8n4Q3VClIsAiQba08A5kpbLM4RR62kIfI7gT/BHA2gADUSvgU9PEwj4bn4EvA/1Mxh+9IZPz6u9nhfsYR+KBuzL35RfGKPGkxDYSNIDBH+CPxpAA2ggGQ3cJ2mDSQIC38mLwNkYfTJGH0oPhHLQG0YD7WvAm7ZxQGAggf9C8Cf4owE0gAaS1QC3AgaGv7zf8DrSt2L4yRo+PbD2e2C0AW3QtgZukrRC3qGO2vcjcBDBn+CPBtAAGkheA+/uFwB4LV8Cfk6U3j+9k7Z7J1wfDaKB+jVwM2sD5Bvs+9Xcj/1heDBAA2gADeShgdf3CwS8lieB75EAkAChATSABrLRwHfyDHXUupfAypIWY/jZGD49vDx6eLQz7TxMA4sk2fdzZE5gD4I/wR8NoAE0kJ0Gds089lF9SUdj+NkZ/rCeAe/Rc0QDeWjgY0RACLDjXx7GjlOnndEAGihr4AzCHwSuYwSAEQA0gAbQQHYauIbwB4F7MPzsDL/cC+BveoVoIE8NLCT8QWAJCQAJABpAA2ggOw3Y93NkToBHAPPM/un10e5oIG8NPJZ57KP6ku4g888u88fx5+34aX/a3xrw8u8cmRP4FQkACQAaQANoIDsNLMg89lF9SWdh+NkZPj1AeoBoAA34EXCOzAl8iASABAANoAE0kJ0Gjsw89lF9SX+F4Wdn+PT+6P2hATSwMxEQAquwGRAJAEkgGkADWWnAT3/NIvxBwAS+ifFnZfz0/uj9oYG8NXAaoQ8CXQK7kQCQAKABNIAGstHAa7vOn98QWFbSLRh/NsZP7y/v3h/tn3f73yhpGcIeBMoE3kUCQAKABtAAGkheAweUHT9/Q8AElpPk3aHoHcAADaABNJCmBq4qfD1RDwJLEXgzCQAJEBpAA2ggWQ28cSmvzwsQKBH4NsafrPHTq0uzV0e70q6jaOB7JT/PnxDoS2BNSXeRBJAEoAE0gAaS0cBCSWv39fi8CIEeAvtg+MkY/ig9Az5DDxINpKuBZyTt3ePj+RcCQwl8kiSAJAANoAE0EL0GPjbU0/MmBPoQ8HOirBCYbq+AHh9tiwbS18DpPPPfJ7rx0kgEvFb0RfQAou8B4OjTd/S0MW3cq4HLJM0eydPzIQgMILB65/6RhdQrLv6HCRpAA2ggTA1cIckTujkgMDWB1SRdShJAEoQG0AAaCF4DCyTNm9rrcwIIlAg4CbgY4w/e+OmRhdkjo11olyY0cLmkNUp+mz8hUBmBOZLOIgkgCUADaAANBKeBH0qaW5m350QQ6EPAewYcg/EHZ/xN9C64Br1YNBCmBuZLWr6Pv+YlCNRC4L2SniQRIBFAA2gADbSmAfvgg2rx8JwUAjMQ2FHSTRh/a8ZPbyzM3hjtQrs0oYHbJO00g4/mbQjUSmBVSd8iCSAJQANoAA00pgFv7MNkv1pDGycflYBXDfwHSYtxAI05gCZ6GFyDniwaCEsDiyS9Z1THzOcg0CSBzSSdTxJAEoAG0AAaqFwDP5e0ZZMOnWtBYFwCHg04UNIjOIDKHQC9sbB6Y7QH7dGEBh6WdIikZcd1xnweAm0R2EjSmSQBJAFoAA2ggYk18F1JG7TlxLkuBKYlsIukK3EAEzuAJnoYXIOeLBoISwPXSdpzWufL9yEQAgEvUOHbAveSCJAIoAE0gAYGauCBYrifRX1CiFyUoVIC3qDiMzwtMND46YWF1QujPWiPpjTg2f1eYZVH+yoNOZwsRAJrF2JfQk+AZAANoIGMNfCEJC/ju16IjpoyQaBOAptKOpUlhQkAGQeApnqYXCes0QwH/n+WtHGdDpZzQyAGAptIOl6Sh8FwVDBAA2ggVQ141PM0SVvE4JgpIwSaJLBW52JHSbqfRIBECA2ggYQ04Gf53clZt0mHyrUgECOBP5P0fkk3JOQAUu3RUC9662hgsAZ+I+l9ncnPc2J0xJQZAm0S8MpXu0o6XdJTJAP0CNEAGohAA09LOk/SvpKWa9OBcm0IpEJgc0nHcXuAABBBAKBHPLhHnDKb+yR9VtILU3G61AMCoRFYqcisz+bpAZIBkgE00LIGur39/SXNCs1ZUh4IpExgfUlHSLqxZSeQcq+GuuXZm6Xdh7f7HcVaJn6UmQMCEGiRgOcK7FTMsl1IMkCvEA2ggRo04GV6/Qif5yV511MOCEAgMAKedGMDtaGyJfHwXgy9PPiggeEaWCzJtxs9oW/FwHwdxYEABIYQmC3prZL+tyQ/h4uzgwEaQAMzacC+wj7DvsM+hAMCEIicgHfX6t4muJNkgGQIDaCBkgY8g9+jhvtI8kRjDghAIFECvk3w6k52/ylJV5ecwEw9A96n94gG0tHAVZ2Z+8cWHQPPI+KAAAQyJPACSX6MxwsOcasgHQdPsKYtyxrwXiNeoOeQzkY8G2Xo56gyBCAwAwEP/+0u6dOSfinJz/mWnQh/wwMNxKEB2+6CYqRvN4b2Z/B8vA0BCCxFwPsS+KmCYyRdTjJAMoQGgtbATZ0Nd+YXs/bnLWXNvAABCEBgCgIbFrcLTpJ0HcEg6GBATz2Onvqk7fRMZ6b+tZJOlPR2SRtMYdd8FQIQgMDYBOaWRggukPR7kgKSAjRQiwa8Idg1pR6+tw/ngAAEIBAMAW/7+RpJh0n6jiQvGTppD4fvwS5nDdxe2JBtyTa1SjBWTkEgAAEIjEhgPUl/3VlJ7BOdR45+1Nkf3EuK5uzYqTvt36uB+4sZ+h+X9KZOL3/dEW2Lj0EAAhCIjoCTAi86clTx+KGHNn1Ps9cx8j9MUtOAF+Ly43jHF/NptmFt/ej8FwWGAAQqJuB7mn5c6dDOhKaTJV3CfgYkRBEnhd6L42JJnjD7gULba1ZsM5wOAhCAQLIEvOvYJpL2LrY+9nKll0p6KOLAkFqPNvf6WIvW5L9IOrzQqjXLAQEIQAACNRFYvbNT2fbFMKrXKfBKhl6r4HGSA0YOKtbAk51H7fyMvYfu/Zy9V9Pz+hibMXxfk3VzWghAAAITEugmB97G9IjCadt524kz14B5Bf1GLTw51QmkE0knlAeWgrw30+KAAAQgAIHICfhRRU+8er2kd3d6cB+VdErRu/PiRl4zvV+A4LV4ubhNvWjOuUVbe/Kp294asBZ4xC5yo6b4EIAABKoi4GVUty0mbnmVtQ9KOk7SNySdXyzI4i1USQraZeA28I6WbpOvS/ps0VZuMw/Ruw3XqEoUnAcCEIAABCDQJeCh4XWKXqS3WH6LpP8m6UNFwuBJi+dI+nnnvSsl3cYExr5JkyfSmY0ZmdX3i0l1TrrM0sPxby62sXaP3TtYMizfVSG/IQABCEAgKgKep7CxpJd0erA7S9qj2MTlgCKJ8NyF/1Xcj/5qMXTt+9PfLW5XeE7DhcV9a9+7vrGY4+AV5Hw/u9/PsKWa/V6/7/g1n9PzJ3wNX8s/XvrZZfDPGcW9c99KOaEos8vuOjh4u06ej+E6uq6us+u+WlQtRmEhAAEIQAACEIAABCAAAQhAAAIQgAAEIAABCEAAAhCAAAQgAAEIQAACEIAABCAAAQhAAAIQgAAEIAABCEAAAhCAAAQgAAEIQAACEIAABCAAAQhAAAIQgAAEIAABCEAAAhCAAAQgAAEIQAACEIAABCAAAQhAAAIQgAAEIAABCEAAAhCAAAQgAAEIQAACEIAABCAAAQhAAAIQgAAEIAABCEAAAhCAAAQgAAEIQAACEIAABCAAgSAIzJH0BklfkHSBpFskLZH0sKRbJV0k6bOS3ihpbhAlphAQgEAqBOxT7FuOK3yNfY59j32QfZF90vGS9pZkX8UBAQhUQGDdzjmOkvSgpD+M+GOjPFvS/pJWraAMnAICEMiPwGxJ+0g6TdJjI/oe+6hHi2Rgo/yQUWMIVENghc5pHPifGMPw+iUIj0s6U9J+jAxU0zCcBQIJE3BP377CPsO+o59PGfU1+66PSFo+YV5UDQKVE9i0k3kvmNL4+hkpyUDlTcUJIRA9gSqDfj+/c7mkTaKnRAUg0ACBLSXdUUPw7zVMbhM00JhcAgKBEph0eL/Xj4z6/52StgmUBcWCQBAEnCUvbCD49xotIwNBND+FgECtBOru6ff6ld7/75LEvIBam5iTx0rA98kubCH49xopIwOxKohyQ2BpAk339Hv9Se//l0haceli8goE8ibw8QCCf6+xMjKQtyapfZwE2u7p9/qR3v+PjhMrpYZAPQT8qN/iABOAsuEyMlBP23NWCFRBILSeftl39P7tjsX6VVSac0AgBQJfDDz49xowyUAKqqMOsROIKej3+hAvGsQBgewJzBpzkY1eQ2r7f5KB7CUMgAYJxBz0y77KiwWt3CA3LgWBIAl4pa2yYcT8N8lAkBKjUJETSCXo9/q2vSJvF4oPgakJnJBQAlA2cCYQTi0NTpAxgdAn8pVtfdK/v5xx+1J1CDxL4GeJJgBlp8DIAGKHwMwEUu3pl31B+e/zZ0bCJyCQNoHfZZAAlI2eZCBtPVO78QjkFvTLvsC7CHJAIGsCDohlo8jpb24TZC39bCufw/D+KH5sUbYKoOIQKAh4T+1RjCX1zzAygEmkTCDnnv4g33V/yg1O3SAwCgGvjz3IQHJ9nZGBUZTDZ0InQE9/uG/7f6E3IOWDQN0Efk4CMDQBYmSgbgVy/ioJ0NMfHvTLnZqfVAmec0EgRgKfJwEYmgCUHQbJQIwKT7/MBP3Rg37Znj+TvjSoIQSGE9iXBGDkBKDsPLhNMFxXvFsvAYb3Jwv6ZRt+S71NxNkhED4BL4f5AEnARElA15kwMhC+zlMoIT396YN+12Y9AXClFERBHSAwLYGvkABMlQB0nYp/MzIwrRr5fpkAPf3qgn7ZTr9UhszfEMiZwIaS/Exs2UD4e3oejAzkbFWT152e/vS2N8x/eevzjSdvHr4JgfQIHEUCUGsCRDKQns1UWSOCfr1Bv5wQ/M8qG45zQSAFAt4W+HKSgFqTgK4T4jZBChYzfR0Y3m8u6Hdt71K2AZ5euJwhTQLrSrqdJKCRJKDrkBgZSNOWBtWKnn7zQb9ra174Z4NBDcPrEICA9DJJniHbNRp+N8eCkYE0LZCefnM2NMhf2afZt3FAAAIzELCh3EcS0GoSxMjADCIN/G16+u0H/W4y8KCkHQLXC8WDQFAESALCcWAkA0GZxsDCEPTDsRmC/0CZ8gYERiNAEhCeQyMZGE27TX2KoB+ejRD8m1I/10meAElAuA6OZKAd8yPoh2sTBP92bIKrJkzg5UwMbHU+QNepDftdnkA4J2EttlU1M91P0pnFao/D2oL32k0QPOHPPosDAhCoiABJQLtObZyg8oikEyRtUlHb53yazSR9VZKZjtMGfLYdXgT/nK2VutdKgCSgHac2aTDxLYJPsunJRDbhjWKOlWSGk/Lne82yI/hPJHW+BIHRCZAENOvUqggiv5T0wtGbOPtPbi7pCgJ/VIkPwT97swVAUwSYGBhfEnC3pJc2JZCIr7O1JK8YV0XixTma4chz/hEbHEWPkwBJQDPOrcogci8jAUONzTvEOVGqkjnnqpcnwX+opHkTAvUR4HZAvc6tjuDxa+YE9DWIlSVdSfCPKvlh2L+vlHkRAs0RYCQgviTg6ObkEc2VPFmyjoSLc9bDlZ5/NKZFQVMnwEhAPU6uruDxBI8I/olJbirJTOrizXmrZUvP/0/kyz8QaJ8ASUC1Tq7uoOF1AjieIzCf4B9N8kPwx2ohECgBbgfEkwQ8JmmVQHXUZLG8rK9Z1J1wcf7pGTPs36RlcC0ITECAkYDpHV1TwWLfCdo3ta+YQVO8uc7krOn5p2Z51CdZAowETO7omgwSpySrwNErdioJQPAJED3/0fXMJyEQBAGSgPCTgLskLROEWtophOvOoj9h65Tg345tcFUITE2AJCBs5+rRhm2nbuV4T/Biev9B9/4J/vHaFiWHwLMESALCTgIOzVinHyQBCDYBIPhnbJhBvdWxAAAZxElEQVRUPS0CJAHhJgE/TEtqY9XmP0gAgkwACP5jyZgPQyB8AiQBYSYBizvb3s4KXz6Vl9BL/y4iAQguASD4Vy51TgiBMAiQBISZBOwahjwaLcVuBH+Cf6OK42IQgIBIAsJLAo7NUJefIgEIKgGg55+hEVLlPAmQBISVBFyRoQy9K2KTay5wrcG8Cf4ZGiBVzpsAScBgh9h0sHhG0roZyXEdSa5z05y53tLMCf4ZGR5VhUCZAEnA0g6xrSCxX7lhEv97f4J/EMkPwT9xQ6N6EJiJAElAGEnAaTM1VELvf50EoPUEgOCfkEFRFQhMQ4AkoP0k4O5MlgX28r93kgC0mgAQ/KfxlnwXAgkSIAloPwl4aYK66q2SddbWbRauKxH8exXJ/xCAwLMESALaDU6HZaDDw0kAWkuACP4ZGBhVhMA0BEgC2ksCzp2m4SL57nkkAK0kAAT/SAyEYkKgbQIkAe0kAY9Lmt1249d4fS957KWPGYpvlgHBv0ZRc2oIpEiAJKBZJ90NinukKKaiTq8n+Dee/BD8EzYoqgaBOgmQBDSfBHymzgZt+dyfJQFoNAEg+LcseC4PgdgJkAQ0mwRcGbtghpT/KhKAxhIAgv8QIfIWBCAwOgGSgOaSAC+Ru97oTRPNJ9dn+V+CfzRqpaAQgMCfECAJaC4JOOBPyKfxzzvp/TeSANDzT8NeqAUEgiNAEtBMEvCN4Fp++gJ9kwSg9gSA4D+9TjkDBCAwhABJQP1JwL2Slh3SBrG95bosJAGoNQEg+MdmFZQXApESIAmoPwnYLlJt9Cv29gR/gn8/YfAaBCAQJwGSgHqTgCPilEXfUv8PEoDaEgB6/n0lx4sQgEDdBEgC6ksCzq+78Ro8/49JAGpJAAj+DYqYS0EAAksTIAmoJwn4vaQ5S+OO7pVVJC0hAag8ASD4R2cKFBgCaRIgCagnCdgrAbnsTfAn+CegY6oAAQgMIUASUH0S8LkhvGN56/MkAJUmAPT8Y1E+5YRAZgRIAqpNAq5JQD/XkgBUlgAQ/BMwCKoAgZQJkARUmwRsGLFYNiD4E/wj1i9Fh0CWBNaU9GJJu0vaT9IHJB3bWaP+REmnS/oPSRdK8sY1NxU/d0t6oPhh0ld1ScDfRazAd5EAVJYA2Ka69mVb69rdryVdIOmHhW3Ol/RJSe+X9Led93aVtK2keRHriKJDAAIVElhG0iaSvD+7g/sXJZ0t6WpJj+K0K3Paf6iA5b9V2O5Nn8plr4IB56iG4yNF0n6WpC9IOqRI8jduWhhcDwIQaIbAXEmvLnoEp0laIGkRjjmawHRfpMsCe/lfl53gHQcDJ/6XdzoGpxaJwc6S/qwZF8VVIACBKggsJ+klkg6W9K+SfsMWrEkEoL+oQhwNn2MHgn/02nta0vWSvt7Zy+E9xW3BlPaoaNgkuBwEqiXggG9H+0/FPcCHcbrRO91+PWa3b2zHh9Biklr0kwjndBZ3OrJz29B7PJAQxGaZlDdqAhtJ+vtiwg9DrHEMr/YL6uO89n8jVOxPSQCSTAB6deudKz3XwxM+/dQHBwQgUDGBbSR5cxjP9n0Gx5qFYy072tiWBfa94yfQaXY6tWa9dsUxknaS5MnGHBCAwJgEbDh/Kel4SbfjSLN0pOUEwH/vM6aG2vy4y9pbfv7Pj8mtkrya5SvaFCPXhkAsBNzTP6rz/O5vcaAEkB4N+LGtWA4/VkrAh0FZA7cVHRqPDHBAAAIFAS/Q8T5JXtCjbDD8DY+yBjwbO5bDT5+Uy87f8Chr4IrOI6L/0EkIVo9F0JQTAlUS8MzZ3YrJM6yah3MsO8dhf8ewYIsXmBpWB96DT1cDjxePK+/CfIEqwwvnCpWAJ0cdWEyU6RoBv3GIo2rAT3+Efljfo9aHz8GqqwHf9vREZ0YFQrdwyjc2gS2L5Xa9FGdX8PyGxbga+PbYymv+Cy7juPXi8zDrasBrmXjy8xbNS5crQqBaAttJ8vK7T+EUCQoVaMCbwXjxp1APl+3+CurZDQb8zjcx8CqE3p/kP4UqdsoFgUEEPNPV4sWBwaBqDYT8SJUfXa26vpwPpl7/xI+Wsq7AoIjD60EQ2EvSZThBgkCNGvhwEErvX4iP1FhvEgESgYuL3Qv7q49XIdASAff4vVwrTgoGdWvgZy1pfJTLuqdWd/05P4x/Iel1owiSz0CgTgI7SvoJTg+n36AGvMSut3gO7VhV0pMNciARIBH4kaQYd8oMzXYpz5gEvOnFfEmeqIIjgkHTGnjTmHpt4uNvxhbwBS1owHujnC5p0yZEzjXyJjCnU30v1esFLJp2+lwP5l0NfClAM/wKNoFPaFED3jDLjw96JIoDApUT2FfS3S0KvOv8+U0icEPl6p7+hDdiGyQAAWjgLkn788TA9AbNGZ4j8OeSzg1A2AR+An9ZA5sFZKAefi2Xjb/h0bYGfipp24BshKJERmBlSceyrzmOPdDgdlBA9uSytO3wuT5t0KsBT5i1D7cv54DAyAQ2lORnTnsFxf8wCUUDZ4ys5vo/+F1sBV8RsAZ+2VmRNaQRs/otkitMTGAbSfcELOZQAhDlaDcZelDS8hOrvLovugwPYS8kAIFrYGHnaYGtq5M9Z0qRwOaSPImE4AaDGDTwygCM8FXYC/4iEg3cyUhAAB4j0CKsJMlDRTE4fspIO1kDfiS17eOj2Aw+IyINLJC0YttGw/XDI+DJIgRWGMSkAS+J2vZxEXaD34hMA59o22i4flgENpK0JDIRxxSoKGs9iZW3mV69RVNaja2uCf4R+k0v5OaJ3hwQeJaAl/UlSMEgRg28pUUb/s/YDX4jUg2c0KLdcOmACPgZUWYxE/xjDP4uc5uOjMQZu4nVbh7urBEwK6A4RFFaIuAlfmMVMeWm7W5uyW582VuwHXxHxBrwCBZH5gS+GLGASQBIAKwBP77a9OElstEfDGLWwOebNhquFx4BZjHjxGJ2Yi77e1swq4NJAEiAItfAhS3YDZcMjIAXh4g9AFD+vNvwey3Y1JnYDX4jcg3c0YLdcMnACCyOXMQE/7yDv9v/EUkrNGhXXv7Xk6jQHgxi1sCjDdoMlwqUgJ8JjVnElJ32swZ2btC+Xo3N4DMS0MCiBm2GSwVK4PYEhEwSQBLgJXmbOo7GZkgAEtDArU0ZDNcJlwCTAAmeKSRQ3r66qeOSBJx/Cm1OHabzXfb9HJkT8KMgGBIMYteAlwVeowFb9tLDvlbsvCg/bXhcA/bCJQInwEJAOIJUgoG1XPfxVoI/yU8iGmhzGe267ZTzj0jAy0E+mIigUwlk1GOypOzEETU/zcdOxlZIABLQgJd/nz2NIfDddAh8JQFBEzQnC5opcWtiUtNt2AoJQAIa+FI64YuaTEtgA0l+JCSlYEBd8mzPLac1hiHf3wobwUckoAGv/eIt4Dkg8EcCH09A2AT9PIN+ud3/+x8VXf0f78NGSAAS0MDHqjcNzhg7Aa+k5rWhy86Uv+ERmwbOqtEQv4994B8i18Clklas0UY4dcQENpZ0V+QCjy1gUd5qkywvb1qHg/M5fW7aCwaxasC+3T6eAwIDCXib09/h6HD0EWvgNQPVPfkbr42YR6wBi3JXl2w5+G8zufz5Zk4ENpXEamfVGR+OrFmWns9S9fEJEgCS4kg1YF++SdUGwfnSJuAhT695zm6BzQYvkoXpeV9Wg2leHqnzR0/T6ylWhvbd9uFN7pRZg+lxyjYJ+BFBrxPghSNiNQTKnVfbPS1pzQqNZi1JPic6gkEMGvDCbl+WZN/NAYFKCKwsycugfqvYfz0GQ6CM+Trst1Wi+udO8l8J/iQ/gWvgkcI3ezls+2oOCNRGYHlJO0k6XtKdgRsGSUCeSYCX7K3qOAWNkwAEqIF7JZ0maR9JK1Ulds4DgXEILFtKBu4O0EhIAPJMAO4YR8QzfNbnQkcwCEED95eCvjtiHBAIhoAFubukr0l6AKdJ0GhZA1tXYBl+dCoEx08Z8m0HB32PaO0mabkKNM0pIFA7AQ9JeWjKQ1TsM5Cv82ozcL2/ApUfSgJAAtSCBpZIOluS7+nXsbBVBabBKSAwGoHVJO0v6TxJz7RgTG0GIa7dXvJzzmjyHPqpH6JXEoAGNeDHTQ/pzOL3kyccEEiOwGadJOAjkm5q0KgIwu0F4TbZPzbl5CjPpmb0Kk/tNKnbGzuPmX5Ykhdg44BANgS2lzRfkh11kwbHtfLhvcsU1rQrusQua9LA45JOl2SNLTOFRvkqBKInsGrnccIDO8ZwQU3GRsDPJ+D3tvUnp7COY9EjCUDFGrhG0hGS5k2hS74KgWQJeOb2MZLuqdjwegMD/+eRFCyYwlJ+hQZJACrQgFfm80jndlNoka9CICsCfopgv85jhb+owAAJ9nkE+37t7CV8157Acl7AhFWC/5S+xyOafzPlPJQJpMtXIJAWga2KVQfZjz3fQN4vuI/6mp3wuMfbp3T+o5aNz6Wlad/b96PPLxtXcHweAhAYTmBuMVfgKpwzvbMxNOClfMc97MQJzjAYVQO/Ke7trzGu0Pg8BCAwPgHvReBZtE/gqAlUM2jgrjFnWntWNntcEPxnCv5PFYv1MJN/fP/NNyBQCYH1JX2MSYMkATMkAduOobaXzHCumQID76edPCzsJJQflbTeGJrioxCAQI0EPGnQqw1ejfMmGeijAS/pO+pxWJ/vE9TTDuqjtO8NxSp9s0cVEp+DAASaJeDhWw/JeR1tlh3GaXcdu5f0HfU4lwSAJLKkAc/m974mLNgzqgXxOQgEQMBDuX7+dnHJmLsBgd95JQfWwKwRNOnlf9FLXtro5wt+X8zmf/EImuEjEIBAwAT8HPhRku4lEci6Z+eRoZmOPdBI1hqxj/BCZJ5bxAEBCCREwPfuDpL0W5x8lk7+UyNo+TNoI0tt+DE+L0c+yijRCDLiIxCAQKgEli3u6XmZ2H7Df7yWJhcv7TvTcSWayMomvKaIJw8vP5MweB8CEEiLgCf1eHLPxTj9LJy+J4WuO0TC6zBxNAsdOMG/QtK+TOwbYg28BYGMCHhhIT85QO8/bQZe4nfQcQDtn7z+uzP6B2mA1yEAgYwJvIpHCJMOAl7id9DxryQAyba9A//rBjU8r0MAAhAoE3hp8RiQl/tkVCAdBncPGPb17SCv8EZbp8PAt3w8qrdj2bD5GwIQgMCoBLaR5J6ht5UlOKTBwMld7+G92mnfNBjYVr/R2Stk695G5n8IQAACkxCwM/HmQ6wuGH+Q8FK/vceRJABJJEDnsRVvr7T5HwIQqIqAVxd0IkBvMV4GXuq39zifNo1a0w78O/Q2Kv9DAAIQqIPAKyX9hKARZdB4XFJ5Qxf/vYS2jLItfyFplzoMnHNCAAIQmImAl5e9nOARXfDwkr/dYy/aL7r284JNfo6fAwIQgECrBLoLCv2aQBJNIPGSv93jc7RbNO12LQv4dGXLbwhAICQCXmLYvRL2Ggh/foB7kN3jGhKA4BOAW4u1+pfrNhq/IQABCIRIYMXOzoMH81x50EHFT3OsJ2kDgn/Q7XRXx47eI2mFEA2dMkEAAhAYRGAVSUdIepQgE2SQ8dK/f0fbBNk2i4pteecOMi5ehwAEIBADAe8tPl8SqwqGdWvACzz9GwlAUAmAF/HxY7abxGDYlBECEIDAqAReLunHBJxgAs49nVs199IewbQHi/iM6kn4HAQgEC2BNzJRMJigw4JO7Y/KXC/Jj2JyQAACEMiCgCc1HSLpYXqgJAOZauCxjqUfJWmlLCyeSkIAAhDoIbBuMT/A9z7pjcIgBw34CQxvy7xOjy3wLwQgAIEsCWwvyXuW5xAAqGO+7XyppL/M0sKpNAQgAIEhBLyi4DtYP4AkKMFE8G5Jb5dkjXNAAAIQgMAAAqtJOp7HBkkEEkgEfGvLw/3zBmidlyEAAQhAoA+B7SRdlEAQYMg/zyH/BZJe0UfXvAQBCEAAAiMQ8P4C+/O8OqMBESWCDxRPuLBu/wgGzkcgAAEIzERgbUlfjygI0OvPr9fv2f2nSFpzJjHzPgQgAAEIjE/gNZJuIBFgRCAwDdwsaffx5cw3IAABCEBgHAKzio1S2Fsgv152aCMrTxYTVueMI2A+CwEIQAAC0xF4maTLAusJhhagKE99SdKvJO0wnYT5NgQgAAEITErASwofKWkxiQC3BRrSgLfqPUzS8pOKlu9BAAIQgEB1BF4o6acNBQB61fX1qkNn+wtJW1YnW84EAQhAAAJVEPAjgwd2emfuoYUeSChfXG30uKQjJPFoXxWWyjkgAAEI1ERga0mXkASQBFWkAS9G9aKatMppIQABCECgYgK+P+se25KKggA99rh67FW0F73+io2S00EAAhBoksC2krwkaxUBgXPkw9FPl3gkiQMCEIAABCIm4NGAo9hciCRohETQm/d4I6oVI9Y7RYcABCAAgR4C3of9phGCAD39fHr65ba+TZJXmuSAAAQgAIEECcwttmctO37+zjPgl9v99E7Pf/UE9U6VIAABCECgh8C+krxrWzkI8Hd+PB7ujAq9vUcb/AsBCEAAAokT2FjSBSQB2SZBP+/s3mcNcEAAAhCAQIYEuhMEPfmLEYA8GHjbXk/08zLSHBCAAAQgkDmB10m6iyQg+STons4iUXtmrnWqDwEIQAACPQReIOlckoBkk4CfSFqvp835FwIQgAAEIPAsAa/1zpoBad0K8JD/Mazjj4VDAAIQgMAoBHaVtJDRgOhHA3xb57WjNDifgQAEIAABCHQJrC/JG8EwOTBOBl7Od6NuY/IbAhCAAAQgMA6BlYoZ4yQBcSUB81nOdxyZ81kIQAACEBhEwIvFLGY0IPjREO/g965BjcjrEIAABCAAgUkIbCfpFpKAYJOA2yXtOEnD8h0IQAACEIDATATm8ahgkAmAH/Fbe6bG430IQAACEIDANAS8euAXGAkIJhH4HI/4TSNnvgsBCEAAAuMS+HtJT5AItJYIPCnp4HEbjc9DAAIQgAAEqiDg9QLYVbD5JwTul7RLFQ3IOSAAAQhAAAKTEthc0nWMBDQ2EvBbSS+atLH4HgQgAAEIQKBKAqtL+hFJQO1JwHmSVquy4TgXBCAAAQhAYFoC3l72RJKA2pKAr0jyBEwOCEAAAhCAQJAEDpHkDWhYPbAaBmbpDZo4IAABCEAAAsET2J8nBCpJgDzT/93BtzYFhAAEIAABCJQI+AmBhxkJmDgReFTSniWe/AkBCEAAAhCIhsBfSLqbJGDsJMDb+G4fTStTUAhAAAIQgEAfAptKup4kYOQk4EZJW/ThyEsQgAAEIACB6Ah4nfrLSQJmTAIulbRmdK1LgSEAAQhAAAJDCMyRdD5JwMAk4GeS5g7hx1sQgAAEIACBaAnMlvR/SAKWSgJ+LMkJEgcEIAABCEAgWQIrSjqDJOCPScBZklZOtrWpGAQgAAEIQKBEYDlJ/0ISoG+yul9JFfwJAQhAAAJZEHAScFLGScB8Sctm0dJUEgIQgAAEINBDYBlJX8gwCThOkuvOAQEIQAACEMiWgAPhFzNKAo7PtqWpOAQgAAEIQKCHgJOAL2eQBPiWBz3/nsbnXwhAAAIQyJuAA+NXE04CvsY9/7wFTu0hAAEIQGAwAU+KOy3BJOBUgv/gRucdCEAAAhCAgAn46YBvJJQEfKuoE60LAQhAAAIQgMAMBJwE+Bn5P0T+822e85+hpXkbAhCAAAQg0ENgBUk/iDgB+L4k14EDAhCAAAQgAIExCXjvgAsjTAIukbTKmHXl4xCAAAQgAAEIlAjMk3RtREnANZ3FjdYolZ8/IQABCEAAAhCYkMAGkm6LIAn4naSNJ6wjX4MABCAAAQhAoA+BrSXdH3AScJ+krfqUm5cgAAEIQAACEJiSwCskPRZgErBI0qumrBtfhwAEIAABCEBgCIE3SHoqoCTgSUl7Dikvb0EAAhCAAAQgUBGBQwJKAA6uqE6cBgIQgAAEIACBEQiEsHnQySOUk49AAAIQgAAEIFAhgeU7993Pa3Ek4FxW+auwNTkVBCAAAQhAYAwCcyVd3UIScL2k1ccoJx+FAAQgAAEIQKBiAptKuqfBJMCPIm5RcR04HQQgAAEIQAACExDYWdKSBpKAJyTtMkH5+AoEIAABCEAAAjUReKekZ2pMAnzud9RUdk4LAQhAAAIQgMAUBI6sMQE4fIpy8VUIQAACEIAABGom8N6KFwryokMH1VxmTg8BCEAAAhCAQAUEdpJ0SwWjATexxG8FrcEpIAABCEAAAg0SmC3pQ5IemCAR8Hf+SZLPwQEBCEAAAhCAQIQEHMQ9QfBsSd605w8DfrzJ0FnFRD8Cf4QNTZEhAAEIQAACgwgsJ+nPi8173ibJP97Ix6/5PQ4IQAACEIAABCAAAQhAAAIQgAAEIAABCEAAAhCAAAQgAAEIQAACEIAABCAAAQhAAAIQgAAEIAABCEAAAhCAAAQgAAEIQAACEIAABCAAAQhAAAIQgAAEIAABCEAAAhCAAAQgAAEIQAACEIAABCAAAQhAAAIQgAAEIAABCEAAAhCAAAQgAAEIQAACEIAABCAAAQhAAAIQgAAEIAABCEAAAhCAAAQgAAEIQAACEIAABCAAAQhAAAIQgAAEIAABCEAAAhCAAAQgAAEIQAACEIAABCAAAQhAAAIQgAAEIAABCEAAAhCAAAQgAAEIQAACEIAABCAAAQhAAAIQgAAEIAABCEAAAhCAAAQgAAEIQAACEIAABCAAAQhAAAIQgAAEIAABCEAAAhCAAAQgAAEIQAACEIAABCAAAQhAAAIQgAAEIAABCEAAAhCAAAQgAAEIQAACEIAABCAAAQhAAAIQgAAEIAABCPyRwP8HvQPJPzepN+IAAAAASUVORK5CYII=;" vertex="1" parent="1">
          <mxGeometry x="250" y="20" width="50" height="50" as="geometry" />
        </mxCell>
        <mxCell id="P35aBOGgWrfuhmSp33Gf-11" value="" style="endArrow=classic;html=1;rounded=0;fillColor=#f8cecc;strokeColor=#b85450;" edge="1" parent="1">
          <mxGeometry width="50" height="50" relative="1" as="geometry">
            <mxPoint x="272" y="90" as="sourcePoint" />
            <mxPoint x="272.06" y="190.41" as="targetPoint" />
          </mxGeometry>
        </mxCell>
        <mxCell id="P35aBOGgWrfuhmSp33Gf-12" value="2. tampers&lt;div&gt;with image&lt;/div&gt;" style="edgeLabel;html=1;align=center;verticalAlign=middle;resizable=0;points=[];" vertex="1" connectable="0" parent="P35aBOGgWrfuhmSp33Gf-11">
          <mxGeometry x="0.1561" y="-1" relative="1" as="geometry">
            <mxPoint x="1" y="-18" as="offset" />
          </mxGeometry>
        </mxCell>
        <mxCell id="P35aBOGgWrfuhmSp33Gf-13" value="k8s cluster" style="image;sketch=0;aspect=fixed;html=1;points=[];align=center;fontSize=12;image=img/lib/mscae/Kubernetes.svg;" vertex="1" parent="1">
          <mxGeometry x="430" y="186.41" width="50" height="48" as="geometry" />
        </mxCell>
      </root>
    </mxGraphModel>
  </diagram>
</mxfile>
